<?xml version="1.0" encoding="UTF-8"?>
<svg id="Layer_1" xmlns="http://www.w3.org/2000/svg" xmlns:xlink="http://www.w3.org/1999/xlink" version="1.1" viewBox="0 0 1820.33 646.96">
  <!-- Generator: Adobe Illustrator 29.4.0, SVG Export Plug-In . SVG Version: 2.1.0 Build 152)  -->
  <defs>
    <style>
      .st0 {
        fill: #5600ff;
      }

      .st1 {
        stroke: url(#linear-gradient);
      }

      .st1, .st2, .st3 {
        fill: none;
      }

      .st1, .st3 {
        stroke-width: 20px;
      }

      .st4 {
        fill: #fff;
      }

      .st2 {
        stroke: lime;
        stroke-width: 13.64px;
      }

      .st2, .st3 {
        stroke-miterlimit: 10;
      }

      .st3 {
        stroke: url(#New_Gradient_Swatch_2);
      }
    </style>
    <linearGradient id="New_Gradient_Swatch_2" data-name="New Gradient Swatch 2" x1="83.69" y1="326.24" x2="570.32" y2="326.24" gradientUnits="userSpaceOnUse">
      <stop offset="0" stop-color="#5600ff"/>
      <stop offset=".59" stop-color="#247fff"/>
      <stop offset="1" stop-color="#00dcff"/>
    </linearGradient>
    <linearGradient id="linear-gradient" x1="173.56" y1="330.45" x2="480.21" y2="330.45" gradientUnits="userSpaceOnUse">
      <stop offset="0" stop-color="#5600ff"/>
      <stop offset=".19" stop-color="#4723ff"/>
      <stop offset=".6" stop-color="#247eff"/>
      <stop offset="1" stop-color="#00dcff"/>
    </linearGradient>
  </defs>
  <g>
    <path class="st0" d="M762.7,375.8c0-25.65-18.32-41.23-37.56-41.23-17.87,0-35.73,14.2-35.74,41.23v108.58c0,9.16-13.75,18.78-29.78,18.78-17.41,0-29.32-9.62-29.32-18.78v-180.5c0-11,11.92-18.32,29.33-18.32,14.2,0,26.11,7.33,26.11,18.33v13.74c10.08-17.87,30.24-34.82,60.47-34.81,26.11,0,47.64,18.79,57.26,45.81,16.04-31.15,42.61-45.81,69.18-45.81,41.69,0,81.54,33.45,81.54,93v108.58c0,9.16-13.75,18.78-29.78,18.78-15.58,0-29.32-9.62-29.32-18.79v-108.58c0-27.49-18.78-41.69-37.1-41.69-18.33,0-36.19,14.66-36.19,41.23v109.49c0,12.83-15.12,18.33-29.78,18.32-13.74,0-29.32-5.5-29.32-18.33v-109.04Z"/>
    <path class="st0" d="M1184.64,368.95c0,38.94-21.99,40.77-42.61,40.77h-93s0,6.87,0,6.87c0,26.57,21.53,43.98,53.6,43.98,30.24,0,42.61-17.41,56.35-17.41s22.45,16.95,22.45,26.11c0,15.58-31.61,38.02-80.63,38.02-65.05,0-110.87-37.57-110.86-93.92v-38.94c0-49.48,44.44-91.62,100.34-91.62,50.39,0,94.37,35.28,94.37,86.13ZM1115.92,374.9c9.62,0,13.29-2.29,13.29-12.37,0-21.53-18.32-36.19-40.31-36.19-20.62,0-39.86,13.74-39.86,35.73v12.83s66.89,0,66.89,0Z"/>
    <path class="st0" d="M1411.88,177v307.41c-.01,9.16-12.38,18.78-29.33,18.78-14.66,0-26.57-9.62-26.57-18.78v-13.29c-9.16,18.78-34.36,36.19-63.68,36.19-42.61,0-80.17-44.9-80.17-93.92v-37.57c0-50.85,36.66-93,81.55-93,28.4,0,49.02,16.95,59.1,34.82v-140.65c0-11,13.29-18.32,29.79-18.32,16.95,0,29.32,7.33,29.32,18.33ZM1271.23,413.39c0,21.07,18.32,42.15,39.86,42.15,23.36,0,41.69-24.28,41.69-33.9v-45.81c0-25.66-21.53-41.23-41.23-41.23-22.45,0-40.32,20.61-40.32,41.23v37.57Z"/>
    <path class="st0" d="M1519.54,208.16c0,15.12-14.2,28.86-32.07,28.86-18.33,0-32.53-13.75-32.53-28.86,0-15.58,14.2-28.86,32.53-28.86,17.87,0,32.07,13.29,32.07,28.86ZM1517.24,303.91v180.5c0,9.16-13.29,18.78-29.79,18.78-16.95,0-29.32-9.62-29.32-18.78v-180.5c0-11,12.38-18.32,29.33-18.32,16.49,0,29.78,7.33,29.78,18.33Z"/>
    <path class="st0" d="M1734.85,372.18v112.24c0,10.54-12.37,18.78-28.87,18.78-15.12,0-26.57-8.25-26.57-18.79v-13.29c-16.49,18.78-38.03,36.19-69.64,36.19-32.53,0-59.56-19.24-59.55-60.93,0-52.69,43.53-67.34,106.75-67.34h18.78s0-5.96,0-5.96c0-19.7-10.08-42.15-40.31-42.15-35.28,0-41.23,14.2-52.23,14.2-13.29,0-20.16-16.04-20.16-29.32,0-18.78,40.77-32.98,73.3-32.98,71.47,0,98.5,43.07,98.49,89.34ZM1675.75,409.74h-6.87c-30.69,0-59.56,3.2-59.56,28.86,0,16.95,10.54,24.74,24.28,24.74,18.78,0,42.15-21.53,42.15-43.98v-9.62Z"/>
  </g>
  <g>
    <path class="st4" d="M740.61,241.59c-1.65,4-6.83,5.41-12.01,5.41-5.89,0-11.06-1.88-12.48-5.41l-18.12-51.32-17.89,51.08c-1.41,3.77-7.06,5.65-12.95,5.65-4.94,0-10.12-1.41-11.77-5.65l-36.25-92.98c-.94-1.88-1.18-3.3-1.18-4.47,0-7.3,11.77-12.48,19.77-12.48,4,0,7.53,1.65,8.71,4.94l23.54,66.85,17.66-58.14c1.65-5.41,5.65-6.12,10.36-6.12s8.71.71,10.36,6.12l17.42,58.38,23.78-67.09c1.18-3.06,4.47-4.94,8.71-4.94,7.53,0,19.54,5.18,19.54,12.71,0,1.41-.24,3.06-.94,4.24l-36.25,93.22Z"/>
    <path class="st4" d="M889.15,178.98v19.3c0,25.19-23.78,48.26-51.08,48.25-27.54,0-51.08-22.84-51.08-48.26v-19.3c0-25.42,23.07-47.78,51.08-47.78,27.31,0,51.08,21.66,51.08,47.79ZM858.78,178.98c0-10.59-9.42-21.19-20.71-21.19-11.53,0-20.72,10.59-20.72,21.18v19.3c0,11.06,9.18,21.66,20.71,21.66,11.3,0,20.72-10.59,20.72-21.66v-19.3Z"/>
    <path class="st4" d="M938.81,234.77c0,4.71-7.06,9.65-15.3,9.65-8.95,0-15.07-4.94-15.06-9.65v-92.75c0-5.65,6.12-9.42,15.07-9.42,7.3,0,13.42,3.77,13.42,9.42v7.06c4.47-9.18,15.77-17.89,31.54-17.89,21.66,0,40.49,21.66,40.49,47.79v55.79c0,6.36-7.77,9.65-15.3,9.65-7.06,0-15.07-3.3-15.07-9.65v-55.79c0-10.59-9.18-21.19-20.48-21.19-9.65,0-19.3,8-19.3,21.19v55.79Z"/>
    <path class="st4" d="M1130.19,76.82v157.95c0,4.71-6.36,9.65-15.07,9.65-7.53,0-13.65-4.94-13.65-9.65v-6.83c-4.71,9.65-17.66,18.6-32.72,18.6-21.89,0-41.19-23.07-41.19-48.26v-19.3c0-26.13,18.83-47.78,41.9-47.78,14.59,0,25.19,8.71,30.37,17.89v-72.27c0-5.65,6.83-9.42,15.3-9.42,8.71,0,15.07,3.77,15.07,9.42ZM1057.92,198.29c0,10.83,9.42,21.66,20.48,21.66,12.01,0,21.42-12.48,21.42-17.42v-23.54c0-13.18-11.06-21.19-21.18-21.19-11.53,0-20.72,10.59-20.72,21.19v19.3Z"/>
    <path class="st4" d="M1249.76,175.46c0,20.01-11.3,20.95-21.89,20.95h-47.79s0,3.53,0,3.53c0,13.65,11.06,22.6,27.54,22.6,15.54,0,21.89-8.94,28.95-8.94,7.06,0,11.53,8.71,11.53,13.42,0,8-16.24,19.54-41.43,19.54-33.43,0-56.97-19.31-56.96-48.26v-20.01c0-25.42,22.84-47.08,51.55-47.08,25.89,0,48.49,18.13,48.49,44.26ZM1214.45,178.52c4.94,0,6.83-1.18,6.83-6.36,0-11.06-9.42-18.6-20.71-18.6-10.59,0-20.48,7.06-20.48,18.36v6.59h34.37Z"/>
    <path class="st4" d="M1325.32,157.81c-13.65,0-27.07,13.42-27.07,34.84v42.14c0,4.71-7.06,9.65-15.54,9.65-8.71,0-14.83-4.94-14.83-9.65v-92.75c0-5.65,6.12-9.42,14.83-9.42,7.53,0,13.65,3.77,13.65,9.42v9.65c4.71-10.12,16.01-20.48,28.95-20.48h7.3c5.65,0,11.06,6.12,11.06,13.18,0,7.3-5.42,13.42-11.06,13.42h-7.3Z"/>
  </g>
  <circle class="st3" cx="327.01" cy="326.24" r="233.32"/>
  <g>
    <g>
      <polygon class="st2" points="296.54 435.37 184.72 217.11 402.98 217.11 296.54 435.37"/>
      <polygon class="st2" points="362.85 435.37 251.04 217.11 469.29 217.11 362.85 435.37"/>
    </g>
    <g>
      <polygon class="st1" points="296.54 435.37 184.72 217.11 402.98 217.11 296.54 435.37"/>
      <polygon class="st1" points="362.85 435.37 251.04 217.11 469.29 217.11 362.85 435.37"/>
    </g>
  </g>
</svg>